<svg width="6" height="7" viewBox="0 0 6 7" fill="none" xmlns="http://www.w3.org/2000/svg">
<path d="M5.51984 5.48635C5.31358 4.97038 4.68113 4.03711 3.99179 3.10658C4.64207 2.36106 5.23204 1.68201 5.38553 1.49015C5.69525 1.103 5.67401 0.937174 5.09363 0.934433C4.6777 0.932377 4.5338 0.882356 4.25835 1.17083C4.09663 1.34008 3.74854 1.75464 3.34837 2.25965C2.70838 1.43464 2.11566 0.723385 1.86624 0.461631C1.50993 0.0881858 1.32355 0.153282 0.784963 0.156023C0.0339619 0.160134 0.0058679 0.374608 0.407407 0.875504C0.630789 1.15507 1.56886 2.23224 2.52953 3.3327C2.03275 4.01039 1.58873 4.67368 1.43866 5.04987C1.23995 5.54734 1.68192 5.76455 2.0581 5.32601C2.26504 5.08413 2.68645 4.60173 3.16268 4.0563C3.83008 4.82032 4.43171 5.50965 4.71813 5.84404C5.20463 6.4114 5.77748 6.13046 5.51984 5.48635Z" fill="#EF4444" stroke="#FDF4F4" stroke-width="0.3"/>
</svg>
