<svg width="8" height="8" viewBox="0 0 8 8" fill="none" xmlns="http://www.w3.org/2000/svg">
<g clip-path="url(#clip0_262_1515)">
<path d="M4.01172 0.0700073C2.07727 0.0700073 0.511719 1.63538 0.511719 3.57001C0.511719 5.50443 2.07709 7.07001 4.01172 7.07001C5.94617 7.07001 7.51172 5.50463 7.51172 3.57001C7.51172 1.63556 5.94634 0.0700073 4.01172 0.0700073ZM4.01172 6.58163C2.35111 6.58163 1.00009 5.23063 1.00009 3.57001C1.00009 1.90938 2.35111 0.55838 4.01172 0.55838C5.67235 0.55838 7.02335 1.90938 7.02335 3.57001C7.02335 5.23063 5.67235 6.58163 4.01172 6.58163Z" fill="#10B981"/>
<path d="M3.90826 4.49865C3.71476 4.49865 3.55812 4.6599 3.55812 4.85338C3.55812 5.04229 3.71015 5.20814 3.90826 5.20814C4.10636 5.20814 4.26299 5.04229 4.26299 4.85338C4.26299 4.6599 4.10174 4.49865 3.90826 4.49865ZM3.96814 1.81274C3.34618 1.81274 3.06055 2.18132 3.06055 2.4301C3.06055 2.60977 3.21258 2.69271 3.33696 2.69271C3.58575 2.69271 3.4844 2.33795 3.95432 2.33795C4.18466 2.33795 4.36896 2.43931 4.36896 2.65124C4.36896 2.90001 4.11096 3.04283 3.95893 3.17182C3.82531 3.28698 3.65026 3.47589 3.65026 3.8721C3.65026 4.11166 3.71476 4.18077 3.90364 4.18077C4.12937 4.18077 4.17545 4.07942 4.17545 3.99186C4.17545 3.7523 4.18005 3.6141 4.43345 3.41599C4.55784 3.31925 4.94943 3.00596 4.94943 2.5729C4.94943 2.13984 4.55784 1.81274 3.96814 1.81274Z" fill="#10B981"/>
</g>
<defs>
<clipPath id="clip0_262_1515">
<rect width="7" height="7" fill="white" transform="translate(0.511719 0.0700073)"/>
</clipPath>
</defs>
</svg>
