<svg width="6" height="6" viewBox="0 0 6 6" fill="none" xmlns="http://www.w3.org/2000/svg">
<path fill-rule="evenodd" clip-rule="evenodd" d="M5.81274 0C5.72229 0 5.55581 0.0173053 5.31284 0.0512211C5.06987 0.0853263 4.9128 0.118232 4.842 0.149432C4.77095 0.180632 4.64255 0.288884 4.45718 0.472989C4.27162 0.657726 4.00244 0.998716 3.65046 1.49564C3.29804 1.99307 2.96924 2.51817 2.66362 3.07143C2.35363 3.63336 2.06805 4.20843 1.80771 4.79501C1.56272 4.37552 1.34135 4.09112 1.14246 3.94156C0.944084 3.79137 0.776716 3.71646 0.640611 3.71646C0.534379 3.71646 0.401242 3.77312 0.240632 3.88592C0.0802105 3.99909 0 4.10981 0 4.21901C0 4.29808 0.0735789 4.41524 0.2208 4.57017C0.512337 4.87819 0.7704 5.20484 0.993789 5.55063C1.13021 5.75741 1.22091 5.88436 1.26613 5.93059C1.31109 5.97644 1.44815 6 1.67728 6C1.99617 6 2.18552 5.95914 2.24571 5.87684C2.30545 5.79771 2.41592 5.56168 2.57703 5.16821C2.97512 4.18307 3.47008 3.24234 4.06162 2.34663C4.65373 1.45124 5.19606 0.773937 5.68977 0.315095C5.78811 0.227937 5.84722 0.171411 5.868 0.145326C5.88821 0.119116 5.89857 0.092779 5.89857 0.0653684C5.89857 0.0220421 5.86983 0 5.81274 0Z" fill="#09B285"/>
</svg>
