<svg width="9" height="8" viewBox="0 0 9 8" fill="none" xmlns="http://www.w3.org/2000/svg">
<path d="M7.99177 5.91327L4.71959 0.486609C4.59067 0.272825 4.35551 0.140015 4.10586 0.140015C3.85621 0.140015 3.62105 0.272825 3.49212 0.486625L0.21995 5.91327C0.0867184 6.13424 0.0827764 6.41108 0.209651 6.63575C0.336556 6.86043 0.575659 7 0.833677 7H7.37804C7.63606 7 7.87518 6.86043 8.00208 6.63574C8.12896 6.41105 8.12502 6.13421 7.99177 5.91327ZM7.54984 6.38035C7.53262 6.41076 7.50765 6.43607 7.47748 6.45368C7.4473 6.4713 7.41299 6.4806 7.37804 6.48063H0.833677C0.798736 6.4806 0.764427 6.47131 0.73425 6.45369C0.704073 6.43608 0.679107 6.41078 0.661899 6.38037C0.644743 6.34993 0.635965 6.31548 0.63646 6.28054C0.636956 6.2456 0.646707 6.21142 0.664719 6.18148L3.93692 0.754817C3.95455 0.725775 3.97935 0.701748 4.00893 0.685041C4.03852 0.668333 4.0719 0.659504 4.10588 0.6594C4.17459 0.6594 4.23932 0.695968 4.27482 0.754817L7.54698 6.18148C7.56501 6.21141 7.57477 6.24559 7.57527 6.28053C7.57577 6.31547 7.56699 6.34991 7.54984 6.38035Z" fill="#F59E0B" stroke="#F59E0B" stroke-width="0.233333"/>
<path d="M4.10838 2.27692C3.91082 2.27692 3.75663 2.38293 3.75663 2.57086C3.75663 3.14427 3.82408 3.96824 3.82408 4.54166C3.8241 4.69103 3.95421 4.75367 4.1084 4.75367C4.22404 4.75367 4.38787 4.69103 4.38787 4.54166C4.38787 3.96826 4.45532 3.14428 4.45532 2.57086C4.45532 2.38294 4.29632 2.27692 4.10838 2.27692ZM4.11323 5.08615C3.90122 5.08615 3.74219 5.25479 3.74219 5.45719C3.74219 5.65475 3.9012 5.82823 4.11323 5.82823C4.31079 5.82823 4.47945 5.65475 4.47945 5.45719C4.47945 5.25479 4.31078 5.08615 4.11323 5.08615Z" fill="#F59E0B"/>
</svg>
